<svg width="430" height="176" viewBox="0 0 430 176" fill="none" xmlns="http://www.w3.org/2000/svg">
<g clip-path="url(#clip0)">
<path d="M39.4753 76.5477C39.4753 77.5757 38.3409 77.9047 37.2066 77.9047C36.4229 77.9047 35.5154 77.7813 35.0616 77.6785C28.0287 75.643 27.3481 73.2785 27.1212 66.7196C26.8943 58.9271 27.1212 51.114 27.2243 43.4243V42.2935C23.8213 42.2935 20.4182 42.1701 17.0152 42.1701L17.3658 77.4523C17.3658 79.0355 5.56861 76.8972 5.56861 73.3813L5.218 41.4916C4.66113 41.2654 4.08365 40.9365 3.52679 40.5869C3.29992 40.3608 0 37.8729 0 36.6393C0 36.4131 0.226869 36.1869 0.680608 36.0636C2.14495 35.714 3.62991 35.5084 5.218 35.2823C5.11487 24.4262 4.99113 13.4467 4.99113 2.48786C4.99113 0.904682 16.7883 3.043 16.7883 6.55889C16.7883 15.7084 16.7883 24.9813 16.8915 34.1514C19.6139 34.028 26.5231 33.3495 27.4306 33.5963C27.6574 28.0654 27.7606 22.9664 27.7606 17.4355C27.7606 14.1664 27.7606 10.8766 27.6574 7.60749C27.5337 6.57945 27.3068 5.57197 27.4306 4.6673C27.4306 4.31777 27.4306 4.11216 27.3068 3.86543C27.08 3.63926 26.9562 3.41309 26.9562 3.08412C26.9562 2.05608 27.7399 1.72711 28.7712 1.72711C29.9055 1.72711 31.143 2.07664 31.8236 2.30281C38.9597 4.44113 39.4134 6.70281 39.5371 13.2617V18.5664C39.5371 24.3234 39.3103 30.1009 39.3103 35.858C39.0834 44.5552 38.8565 66.9458 38.8565 74.3065C38.8978 75.8692 39.5784 75.5196 39.4753 76.5477Z" fill="black"/>
<path d="M84.6223 74.286C83.0342 76.7739 77.94 78.686 74.7638 78.5832C74.2069 78.5832 73.7326 78.5832 73.4026 78.4804C65.1322 75.9925 60.5948 78.8299 58.4292 78.1309C55.1499 77.2262 51.7469 75.1907 50.3857 71.4692C50.1588 70.914 50.035 70.5645 50.035 70.2355C50.035 69.2281 50.5919 68.6524 50.8188 67.0692C51.1694 63.6767 51.2725 57.3439 51.3756 53.9514C51.6025 46.1589 51.6025 38.4692 51.3756 30.7795C51.2519 21.1776 51.025 13.1383 50.5919 3.63927C50.4681 2.50843 51.6025 2.05609 53.0875 2.05609C56.8205 2.05609 63.3997 4.77011 63.3997 7.1346C63.3997 16.2841 63.3997 26.6879 63.5234 35.858C63.6472 43.1982 63.2966 50.4355 63.0697 57.7963C62.946 60.8393 62.8428 64.8075 62.616 67.8505C65.6684 67.9739 70.8864 67.7271 73.6088 69.7832C72.1445 47.9682 73.6088 25.1253 73.6088 3.86544C73.6088 0.472914 85.1792 4.21497 85.1792 6.12712V71.0374C85.406 71.2636 85.406 71.5925 85.406 71.9421C85.406 72.6 84.9523 73.5047 84.6223 74.286Z" fill="black"/>
<path d="M135.998 21.2598C135.544 28.0449 135.647 34.8299 135.771 41.615L136.122 57.0972C136.225 63.3066 135.998 71.572 137.132 77.1028C138.04 77.7813 137.689 78.3365 136.782 78.4598C136.431 78.5627 135.998 78.5627 135.544 78.5627C131.914 78.5627 127.047 76.8767 125.789 74.0393C124.758 71.5514 125.108 67.1514 124.984 64.4374L124.654 53.0262C124.428 44.329 124.201 37.3178 124.304 28.6C122.365 36.9683 120.901 43.9795 119.54 50.1888C119.086 52.5739 109.681 49.058 109.33 46.7963C108.423 41.5944 106.278 36.7421 103.886 31.8692C104.009 34.2337 104.009 36.4954 104.009 38.757C104.112 46.8991 104.236 55.144 104.463 63.286C104.587 67.686 104.112 72.8879 105.371 77.1851C105.927 79.2206 94.8314 77.1851 93.9239 74.2449C92.7896 70.4 93.1402 65.6505 93.0164 61.7028C92.7896 54.1365 92.6658 46.5496 92.5627 38.9832C92.439 26.8935 93.4702 13.6524 91.8821 1.66545C91.8821 0.88414 93.0164 0.534607 94.6045 0.534607C98.5644 0.534607 105.144 2.67292 105.144 4.8318C105.144 9.68414 107.99 18.8542 111.372 25.6393C112.403 27.572 113.311 29.4841 114.095 31.5197C115.477 23.6243 118.426 15.8318 121.829 10.2804C123.417 7.56638 126.82 1.23367 130.553 1.0075C131.914 1.0075 140.989 3.04302 140.989 5.3047C140.989 5.53087 140.865 5.75704 140.638 5.98321C136.802 9.95143 136.452 15.9346 135.998 21.2598Z" fill="black"/>
<path d="M177.866 40.7103C179.557 41.7384 181.145 42.972 182.403 44.1028C185.703 47.1458 185.455 49.0785 184.899 53.0262C184.218 57.5496 183.661 62.1757 183.207 66.6991C182.98 68.7346 182.65 70.8729 182.527 72.9084C182.527 73.6898 182.3 75.3963 182.403 76.5271C182.98 77.0823 183.888 78.3365 182.63 78.6655C181.949 78.8916 181.166 79.015 180.485 79.015C178.216 79.015 175.948 78.2337 173.906 77.5552C169.368 76.0954 164.831 75.1907 160.19 74.3888V74.7383C160.19 75.1907 160.19 75.972 160.19 76.7739C160.19 79.0355 157.014 78.0075 156.004 77.5757C146.599 73.2785 148.063 59.2561 147.836 50.7851C147.609 35.858 148.393 18.7926 146.929 3.86545V3.61872C146.929 1.02807 150.662 3.61872 151.466 4.07106C153.735 5.42807 156.684 7.34022 158.045 9.95144L174.38 1.13087C174.937 0.904706 175.618 0.781342 176.319 0.781342C179.598 0.781342 184.713 2.91966 185.724 5.07854C186.734 7.21686 187.085 9.14957 187.085 11.1851C187.085 13.8991 186.404 16.7159 185.847 20.0056C184.94 24.858 184.259 30.1832 182.341 34.8094C181.145 37.4206 179.681 39.3533 177.866 40.7103ZM160.954 19.101C160.603 19.3271 160.273 19.4299 159.819 19.4299C160.727 26.0916 160.85 31.8692 160.5 38.8804C165.367 37.7496 169.121 34.9327 171.163 28.929C172.627 24.529 173.308 19.7795 174.112 15.1327C174.339 14.1047 174.566 12.8711 174.896 11.6169L160.954 19.101ZM167.883 44.658C165.388 44.8841 162.789 44.8842 160.17 44.7608C159.819 49.7365 160.294 62.7309 160.17 68.5084C161.531 68.5084 163.016 68.6113 164.357 68.7346C166.295 68.9608 169.224 69.9683 171.493 69.9683C170.028 65.8972 170.255 61.0449 170.482 56.8505C170.709 54.0337 171.266 50.8673 171.616 47.701C170.606 47.043 169.018 45.5627 167.883 44.658Z" fill="black"/>
<path d="M196.696 43.7533C196.572 39.9084 196.572 36.6392 196.572 33.4729C195.211 32.2392 193.293 29.9776 194.984 29.7514C195.438 29.7514 196.015 29.6486 196.572 29.6486C196.448 23.7682 196.221 18.114 195.211 10.7738C195.108 9.4168 193.85 7.27848 193.85 5.57194C193.85 4.77007 194.076 4.11213 194.881 3.63923C195.788 3.08409 198.964 4.31774 199.975 4.42054C203.151 4.87288 206.554 4.42054 209.73 4.09157C214.598 3.51587 218.681 2.96073 223.569 1.95325H223.796C225.941 1.82989 233.201 7.15512 231.84 8.1626C225.611 13.1383 227.199 16.8598 227.653 20.0261C227.199 20.5813 226.972 20.9308 225.261 19.4504C223.116 17.5383 221.301 14.5981 220.496 11.6579C215.959 12.7888 211.422 13.6934 207.111 13.1383C207.565 16.5308 207.895 22.514 208.142 29.1962C212.556 29.1962 216.536 29.1962 217.444 29.3196C217.774 29.3196 219.135 29.443 219.713 29.7719C221.528 31.129 226.519 33.843 222.662 34.7476C220.166 35.3028 219.383 35.4261 217.444 35.7551C214.371 36.2075 211.318 36.6598 208.245 37.3383C208.369 44.3495 208.369 51.0112 208.142 55.4318C211.875 54.8766 215.505 54.5271 218.125 54.3009C219.259 54.1776 218.351 45.4804 217.671 44.3495C216.99 43.2187 219.135 43.7944 220.744 44C222.332 44.2261 227.55 45.4598 228.561 48.8523C229.819 52.6972 228.911 58.0019 230.376 61.7439C230.479 62.299 230.272 62.5458 229.819 62.6486C222.683 62.6486 212.123 63.3271 205.544 66.1645C202.821 67.2953 195.458 62.6486 195.685 59.9551C196.015 54.5065 196.799 49.3047 196.696 43.7533ZM230.953 75.5196C221.754 74.5121 211.339 76.7533 201.687 77.1028C200.656 77 195.005 73.6075 196.593 72.7028C201.914 69.7626 215.423 67.8504 215.423 67.8504C215.423 67.8504 219.836 67.0691 222.229 67.1719C225.054 67.2953 228.581 70.1121 230.396 71.9215C230.974 72.4972 232.211 74.0598 232.314 74.9645C232.314 75.4168 231.964 75.643 230.953 75.5196Z" fill="black"/>
<path d="M268.387 45.686C268.263 45.686 268.263 45.7888 268.16 45.7888L277.688 76.8766C278.493 79.1383 265.891 77 264.88 73.6075L256.713 46.9196C255.001 46.9196 252.959 46.8168 251.144 46.6935C251.928 57.2 252.506 67.7271 252.959 78.357C252.959 78.7066 252.403 78.9122 251.371 78.9122C248.195 78.9122 241.286 77.1028 241.162 74.3888C240.708 63.8823 240.131 53.4785 239.45 43.0748C238.873 35.1589 238.213 27.243 237.305 19.3271C236.728 15.0299 236.625 9.72524 234.583 5.75702C234.583 5.63365 234.459 5.40749 234.459 5.40749C234.459 4.05048 238.997 4.95515 239.553 5.05795C241.698 5.61309 245.225 6.64113 246.36 8.77945C246.71 9.33459 246.937 9.91029 247.143 10.4654C248.855 9.45795 250.67 8.53272 252.238 7.75141C256.197 5.83926 260.755 1.9944 265.169 1.54207C265.52 1.4187 265.85 1.4187 266.303 1.4187C270.717 1.4187 275.708 4.35889 278.204 7.85422C278.987 8.86169 279.235 9.88973 279.235 10.8972C279.235 12.357 278.657 13.8374 278.327 15.6467C276.966 23.1103 275.605 31.0262 273.006 38.2636C272.016 41.0393 271.088 44.1028 268.387 45.686ZM248.979 22.0411C248.979 22.5963 248.979 23.0486 249.103 23.6243C249.659 28.4766 250.113 33.4523 250.464 38.3252C255.558 38.8804 261.457 40.6897 262.715 36.5159C263.746 33.0206 263.622 29.0523 264.303 25.4337L266.695 13.2206C263.168 15.1533 259.889 17.5178 257.394 18.7514C254.774 20.129 251.928 22.3907 248.979 22.0411Z" fill="black"/>
<path d="M302.52 24.6523C302.066 32.1159 302.066 39.5794 302.066 47.043C302.169 56.871 302.293 67.2748 302.52 77.1234C302.644 78.2542 301.736 78.7065 300.602 78.7065C297.323 78.7065 291.073 75.314 290.97 71.9215C290.743 61.6411 290.62 49.6542 290.62 39.3533C290.62 31.8897 290.723 24.5495 290.97 17.086C291.073 14.8243 291.197 12.3364 291.424 9.8486C289.836 9.8486 288.145 9.74579 283.38 9.74579C284.391 13.6935 285.422 17.2093 284.845 21.2804C284.618 22.8636 272.944 18.9159 273.625 17.2093C275.543 12.8093 274.079 7.38131 272.161 3.41308C272.161 3.28972 272.037 2.96075 272.037 2.73458C272.037 2.50841 272.161 2.28224 272.491 2.17944C278.266 1.37757 284.845 1.50093 289.052 1.37757C296.188 1.1514 333.746 0.143925 335.664 0.143925L338.365 0C341.212 0.123364 344.388 2.83738 346.306 4.4C346.533 4.62617 351.524 9.14953 349.152 9.25234C339.294 9.70467 328.053 9.25234 318.071 9.47851C313.307 9.70467 308.542 9.70467 303.778 9.80748C302.747 13.3439 302.747 20.9103 302.52 24.6523ZM350.266 24.6523C350.616 24.5495 349.915 25.2075 349.688 25.6804C349.338 26.4617 349.131 27.3664 349.008 28.1682C348.43 30.8822 348.203 34.9533 348.1 37.6673C347.646 45.2336 347.75 49.0785 347.873 56.6654C348.1 67.0692 348.554 66.6168 349.235 77.0206C349.461 79.9607 344.14 77.9252 343.109 77.3495C342.552 77.0206 341.975 76.671 341.521 76.3421C340.943 76.1159 338.345 75.4374 337.664 75.314C335.973 75.0879 334.158 74.9645 332.446 75.0879C331.188 75.0879 326.321 75.314 325.991 76.2187C324.176 81.2972 314.42 73.628 314.42 69.886L314.771 21.9383C313.637 20.2523 313.307 18.3196 314.874 16.4075C315.905 15.1738 317.947 15.729 319.185 16.1813C323.145 17.6411 328.94 15.729 333.024 15.2766C337.458 14.7215 341.294 14.7215 345.398 16.757C346.76 17.4355 351.173 20.828 351.173 23.1925C351.173 23.8505 350.843 24.3028 350.266 24.6523ZM337.561 67.172C336.984 59.1533 336.984 57.7963 336.777 47.8449C336.654 41.0598 336.88 32.0131 337.458 25.0019C334.179 26.1327 329.394 26.3589 325.558 25.6804C325.434 42.972 325.331 51.7925 325.207 65.486H326.444C330.425 65.4654 334.158 66.0411 337.561 67.172ZM338.365 0C338.262 0 338.139 0 338.015 0H338.365ZM338.469 0C338.469 0 338.469 0 338.365 0H338.469Z" fill="black"/>
<path d="M39.4753 106.587C34.6079 109.424 33.9273 113.927 32.8961 119.129C32.2155 122.748 30.5243 129.08 32.2155 132.576C32.5661 133.254 31.1842 132.679 31.0811 132.576C25.3063 129.409 22.8107 125.688 23.2644 119.355C23.4913 116.065 23.8213 111.563 25.0794 107.594H24.7288C22.9138 107.594 16.3346 107.245 16.3346 107.245C16.3346 107.245 17.3658 119.91 17.5721 123.755C18.2527 136.647 17.2215 149.538 16.2109 162.43C16.0871 162.985 16.0871 163.664 15.984 164.239C19.8408 164.239 23.8007 164.692 27.3275 164.918C25.5125 161.422 25.1825 158.482 25.2856 152.828C25.2856 150.217 25.3888 147.523 26.0694 145.138C26.42 144.131 29.6993 145.94 30.0293 146.166C33.6592 148.079 36.3816 147.174 36.3816 151.594C36.5054 157.804 35.3504 165.843 38.8772 171.723C39.5578 172.957 38.8772 173.307 37.7428 173.307C31.1636 173.183 21.7588 170.695 15.9634 174.89C15.6127 175.219 15.159 175.342 14.6021 175.342C11.3229 175.342 5.65112 170.037 4.97051 167.879C4.6199 166.522 4.41365 165.164 4.41365 163.705C4.41365 160.867 5.09426 157.948 5.32113 155.336C6.22861 142.219 6.33173 128.998 5.87799 115.88C5.75424 112.036 5.52737 108.314 5.19738 104.572C5.09426 103.667 4.51677 101.406 5.09426 100.501C6.10486 98.6916 9.85852 100.049 11.4466 100.049C17.7989 100.501 24.4813 100.604 30.7305 99.3701H31.0811C33.4529 99.3701 39.929 103.893 39.929 105.929C39.929 106.135 39.8053 106.464 39.4753 106.587Z" fill="black"/>
<path d="M86.4373 138.703L83.488 139.71C83.488 140.944 83.6117 142.322 83.6117 143.555C83.8386 150.566 84.2923 157.68 84.3954 164.692C84.5192 167.529 85.3029 172.608 83.6117 175.095C81.673 177.912 70.8039 172.484 71.8145 171.024C73.6295 168.434 72.722 163.108 72.5982 160.168C72.4951 154.411 72.1445 148.757 71.9176 142.979C68.3908 143.781 65.0084 144.336 61.3785 144.789C61.3785 154.966 61.2754 165.247 60.6979 175.424C60.6979 175.753 60.0173 175.979 58.9861 175.979C55.7068 175.979 48.6738 173.944 48.9007 171.353C49.4576 162.759 49.5813 154.062 49.5813 145.467C47.5395 145.118 45.4976 144.439 43.8064 143.432C43.229 143.082 41.414 142.075 41.414 141.396C41.414 141.17 41.7646 141.067 42.5483 141.067C44.9202 140.944 47.3126 140.718 49.6844 140.265V138.353C49.6844 131.794 49.6844 125.359 49.1276 118.8C48.7769 115.51 48.9007 109.424 46.5289 106.71C45.2914 105.353 46.8589 104.901 48.2201 104.901C54.9024 105.23 63.0697 101.611 68.9683 98.5682C71.237 97.3346 72.7013 96.4299 74.8669 96.4299C75.4238 96.4299 76.2281 96.5327 77.0119 96.7794C80.6418 97.5608 83.818 99.1439 86.4166 101.632C86.7466 101.858 86.8704 102.31 86.8704 102.763C83.1373 111.131 82.7867 121.308 83.0136 131.034C83.4673 131.383 86.8704 136.009 86.8704 137.922C86.891 138.25 86.7673 138.477 86.4373 138.703ZM61.2548 137.12C64.7609 135.886 68.164 134.406 71.4639 132.596C71.3608 127.065 71.3608 121.514 71.6907 115.983C71.9176 112.94 72.1445 109.877 72.722 106.834C68.0815 108.643 63.0903 110 58.4292 110.226C60.0173 113.166 60.2442 117.011 60.5742 120.178C61.131 125.811 61.3579 131.568 61.2548 137.12Z" fill="black"/>
<path d="M134.987 102.845C131.687 107.697 130.801 114.832 129.439 120.363C127.294 129.409 125.479 138.559 123.664 147.606C122.303 154.72 120.942 161.957 119.705 169.092C119.478 169.996 119.601 171.579 119.024 172.361C118.013 173.944 115.972 173.944 114.26 173.718L112.795 173.368C111.331 172.916 111.331 172.916 112.795 173.594C112.238 174.047 111.661 174.376 111.104 174.951C110.65 175.301 109.97 175.507 109.165 175.507C105.762 175.507 99.6369 172.69 99.6369 170.531C99.5132 147.009 94.5427 123.611 92.1502 100.316V100.193C92.0471 97.6019 103.597 100.419 103.824 103.359C105.515 119.869 108.464 136.379 110.176 152.993L113.228 137.284C114.817 129.265 116.508 121.226 118.446 113.31C119.581 108.684 120.488 102.907 123.211 98.8355C123.561 98.2598 124.345 98.0336 125.253 98.0336C128.759 98.0336 135.008 101.303 135.008 102.557V102.845H134.987Z" fill="black"/>
<path d="M176.607 138.703L173.658 139.71C173.658 140.944 173.782 142.322 173.782 143.555C174.009 150.566 174.463 157.68 174.566 164.692C174.689 167.529 175.473 172.608 173.782 175.095C171.843 177.912 160.974 172.484 161.985 171.024C163.8 168.434 162.892 163.108 162.768 160.168C162.665 154.411 162.315 148.757 162.088 142.979C158.561 143.781 155.179 144.336 151.549 144.789C151.549 154.966 151.425 165.247 150.868 175.424C150.868 175.753 150.188 175.979 149.156 175.979C145.877 175.979 138.844 173.944 139.071 171.353C139.628 162.759 139.752 154.062 139.752 145.467C137.71 145.118 135.668 144.439 133.977 143.432C133.42 143.082 131.605 142.075 131.605 141.396C131.605 141.17 131.935 141.067 132.739 141.067C135.111 140.944 137.503 140.718 139.875 140.265V138.353C139.875 131.794 139.875 125.359 139.318 118.8C138.968 115.51 139.092 109.424 136.72 106.71C135.482 105.353 137.07 104.901 138.411 104.901C145.093 105.23 153.261 101.611 159.159 98.5682C161.428 97.3346 162.892 96.4299 165.058 96.4299C165.615 96.4299 166.419 96.5327 167.203 96.7794C170.833 97.5608 174.009 99.1439 176.607 101.632C176.958 101.858 177.061 102.31 177.061 102.763C173.328 111.131 172.978 121.308 173.204 131.034C173.658 131.383 177.061 136.009 177.061 137.922C177.061 138.25 176.958 138.477 176.607 138.703ZM151.425 137.12C154.931 135.886 158.334 134.406 161.634 132.596C161.51 127.065 161.51 121.514 161.861 115.983C162.088 112.94 162.315 109.877 162.892 106.834C158.252 108.643 153.261 110 148.599 110.226C150.188 113.166 150.414 117.011 150.744 120.178C151.322 125.811 151.549 131.568 151.425 137.12Z" fill="black"/>
<path d="M221.425 157.701C218.578 158.606 217.341 159.407 207.812 165.72C205.214 167.406 202.141 169.565 199.542 171.25C197.851 172.484 197.5 173.286 197.17 173.738C196.943 174.088 196.49 174.191 196.16 174.191C193.437 174.191 187.889 168.66 186.982 167.179C184.713 163.561 185.517 158.811 185.394 154.74C185.167 145.92 185.394 141.622 185.394 131.445C185.394 122.295 185.394 111.09 183.805 102.043C183.702 101.488 183.579 100.912 183.579 100.583C183.579 98.7738 184.486 98.0953 185.62 98.2187C187.332 98.2187 189.704 99.3496 191.746 100.028C196.283 101.611 196.283 102.845 196.84 106.011C198.428 115.839 197.871 128.279 197.871 138.23C197.871 145.467 197.314 152.705 197.191 159.942C201.831 157.454 209.091 153.383 212.618 152.705C213.979 152.355 215.464 152.15 216.702 152.581C218.413 153.157 221.693 156.303 221.693 157.331C221.651 157.578 221.528 157.701 221.425 157.701Z" fill="black"/>
<path d="M254.651 106.587C249.783 109.424 249.103 113.927 248.071 119.129C247.391 122.748 245.679 129.08 247.391 132.576C247.741 133.254 246.36 132.679 246.256 132.576C240.482 129.409 237.986 125.688 238.44 119.355C238.667 116.065 239.017 111.563 240.255 107.594H239.904C238.089 107.594 231.51 107.245 231.51 107.245C231.51 107.245 232.541 119.91 232.768 123.755C233.449 136.647 232.417 149.538 231.407 162.43C231.304 162.985 231.304 163.664 231.18 164.239C235.037 164.239 238.997 164.692 242.523 164.918C240.708 161.422 240.378 158.482 240.482 152.828C240.482 150.217 240.585 147.523 241.265 145.138C241.616 144.131 244.895 145.94 245.225 146.166C248.855 148.079 251.578 147.174 251.578 151.594C251.701 157.804 250.567 165.843 254.073 171.723C254.754 172.957 254.073 173.307 252.939 173.307C246.36 173.183 236.955 170.695 231.159 174.89C230.809 175.219 230.376 175.342 229.798 175.342C226.519 175.342 220.847 170.037 220.166 167.879C219.816 166.522 219.589 165.164 219.589 163.705C219.589 160.867 220.27 157.948 220.496 155.336C221.404 142.219 221.528 128.998 221.053 115.88C220.95 112.036 220.723 108.314 220.373 104.572C220.249 103.667 219.692 101.406 220.249 100.501C221.28 98.6916 225.013 100.049 226.601 100.049C232.954 100.501 239.636 100.604 245.885 99.3701H246.236C248.608 99.3701 255.084 103.893 255.084 105.929C255.104 106.135 255.001 106.464 254.651 106.587Z" fill="black"/>
<path d="M301.613 138.703L298.663 139.71C298.663 140.944 298.766 142.322 298.766 143.555C298.993 150.566 299.447 157.68 299.55 164.692C299.674 167.529 300.458 172.608 298.766 175.095C296.848 177.912 285.959 172.484 286.969 171.024C288.784 168.434 287.877 163.108 287.773 160.168C287.65 154.411 287.32 148.757 287.093 142.979C283.566 143.781 280.184 144.336 276.554 144.789C276.554 154.966 276.43 165.247 275.873 175.424C275.873 175.753 275.193 175.979 274.161 175.979C270.882 175.979 263.849 173.944 264.076 171.353C264.653 162.759 264.757 154.062 264.757 145.467C262.715 145.118 260.673 144.439 258.982 143.432C258.425 143.082 256.61 142.075 256.61 141.396C256.61 141.17 256.96 141.067 257.744 141.067C260.116 140.944 262.508 140.718 264.88 140.265V138.353C264.88 131.794 264.88 125.359 264.303 118.8C263.952 115.51 264.076 109.424 261.704 106.71C260.446 105.353 262.055 104.901 263.416 104.901C270.098 105.23 278.266 101.611 284.164 98.5682C286.433 97.3346 287.897 96.4299 290.063 96.4299C290.62 96.4299 291.424 96.5327 292.208 96.7794C295.838 97.5608 299.014 99.1439 301.613 101.632C301.963 101.858 302.066 102.31 302.066 102.763C298.333 111.131 297.983 121.308 298.209 131.034C298.663 131.383 302.066 136.009 302.066 137.922C302.066 138.25 301.963 138.477 301.613 138.703ZM276.43 137.12C279.957 135.886 283.339 134.406 286.639 132.596C286.515 127.065 286.515 121.514 286.866 115.983C287.093 112.94 287.32 109.877 287.897 106.834C283.257 108.643 278.266 110 273.604 110.226C275.193 113.166 275.419 117.011 275.749 120.178C276.327 125.811 276.554 131.568 276.43 137.12Z" fill="black"/>
<path d="M345.171 174.417C345.275 174.766 344.718 174.972 343.81 174.972C340.737 174.972 334.179 173.286 333.725 171.024C331.58 157.907 324.547 145.241 319.205 133.151V136.873C319.308 144.892 319.308 153.034 319.556 161.073C319.659 165.144 319.205 169.996 320.34 173.965C320.917 176 309.8 173.965 308.893 171.024C307.635 166.953 308.089 162.101 307.986 158.03C307.759 150.011 307.635 142.095 307.635 134.056C307.635 127.497 307.532 120.836 307.532 114.277C307.532 109.424 307.635 104.449 307.635 99.5757C307.635 97.7663 318.978 100.254 319.082 103.421C319.762 114.832 326.218 126.593 330.879 136.893C331.456 138.25 332.013 139.607 332.694 140.964C332.591 134.632 332.694 128.196 332.921 121.864C333.147 116.785 333.147 112.262 333.147 107.163C332.921 102.536 332.467 100.727 331.91 100.049C330.776 98.9177 330.672 97.7869 332.487 97.7869H332.941C336.798 98.0131 342.8 99.5963 343.831 103.77C344.862 107.718 344.965 112.92 344.862 116.991C344.264 136.215 343.934 155.316 345.171 174.417Z" fill="black"/>
<path d="M385.781 105.004C381.367 104.901 376.933 105.559 372.52 106.361C372.52 106.813 372.52 107.265 372.293 107.718C371.055 110.884 371.158 116.867 370.931 120.712C370.478 128.176 370.478 135.639 370.478 143.103C370.581 152.931 370.705 163.335 370.931 173.183C370.931 174.314 370.148 174.766 368.993 174.766C365.713 174.766 359.464 171.374 359.361 167.981C359.134 157.701 359.011 145.714 359.011 135.413C359.011 128.073 359.114 120.609 359.464 113.249C359.588 111.789 359.588 110.308 359.691 108.725C356.845 109.178 353.916 109.404 351.421 108.725C349.956 108.273 345.873 106.135 345.873 104.325C345.873 102.064 354.824 100.707 356.536 100.254C358.351 99.9047 360.165 99.4729 361.98 99.1234C362.331 98.7738 362.888 98.671 363.569 98.7738C367.528 98.0953 371.633 97.5402 375.593 97.5402H376.727C379.223 97.6636 381.718 99.4729 383.533 100.933C383.76 101.036 386.379 103.647 386.379 104.654C386.359 104.88 386.235 105.004 385.781 105.004Z" fill="black"/>
<path d="M389.535 140.389C389.411 136.544 389.411 133.275 389.411 130.108C388.05 128.875 386.132 126.613 387.823 126.387C388.277 126.387 388.854 126.284 389.411 126.284C389.308 120.404 389.081 114.75 388.05 107.409C387.926 106.052 386.689 103.914 386.689 102.207C386.689 101.406 386.915 100.748 387.72 100.275C388.627 99.7196 391.803 100.953 392.814 101.056C395.99 101.508 399.393 101.056 402.569 100.727C407.437 100.151 411.52 99.5963 416.408 98.5888H416.635C418.78 98.4654 426.04 103.791 424.679 104.798C418.43 109.774 420.038 113.495 420.471 116.662C420.018 117.217 419.791 117.566 418.1 116.086C415.955 114.174 414.14 111.234 413.335 108.293C408.798 109.424 404.261 110.329 399.95 109.774C400.404 113.166 400.734 119.15 400.961 125.832C405.395 125.832 409.355 125.832 410.262 125.955C410.613 125.955 411.974 126.078 412.531 126.407C414.346 127.764 419.337 130.478 415.48 131.383C412.985 131.938 412.201 132.062 410.262 132.391C407.21 132.843 404.137 133.295 401.084 133.974C401.188 140.985 401.188 147.647 400.961 152.067C404.714 151.512 408.344 151.163 410.943 150.936C412.077 150.813 411.17 142.116 410.489 140.985C409.809 139.854 411.954 140.43 413.542 140.636C415.13 140.841 420.348 142.095 421.358 145.488C422.596 149.333 421.709 154.637 423.173 158.379C423.276 158.935 423.049 159.181 422.596 159.284C415.46 159.284 404.9 159.963 398.321 162.8C395.598 163.931 388.235 159.284 388.462 156.591C388.854 151.142 389.638 145.94 389.535 140.389ZM423.792 172.155C414.614 171.148 404.178 173.389 394.526 173.738C393.495 173.635 387.823 170.243 389.411 169.338C394.732 166.398 408.241 164.486 408.241 164.486C408.241 164.486 412.675 163.705 415.047 163.807C417.893 163.931 421.4 166.748 423.215 168.557C423.771 169.133 425.029 170.695 425.133 171.6C425.153 172.052 424.803 172.278 423.792 172.155Z" fill="black"/>
<path d="M381.862 81.5645C390.03 79.4879 398.197 77.4112 406.385 75.3346C406.385 75.2935 406.385 75.2523 406.385 75.1907C401.229 75.7047 396.052 76.157 390.896 76.7738C384.275 77.5757 377.696 78.4598 371.096 79.4056C368.518 79.7757 366.972 78.3776 365.198 76.486C367.384 76.1365 369.281 75.7458 371.2 75.5402C382.316 74.2654 393.433 72.7234 404.591 71.9215C411.603 71.428 418.677 72.0654 425.731 72.2916C427.566 72.3533 428.948 73.4841 430.021 74.9851C420.203 76.9589 410.53 78.8916 400.858 80.8449C400.899 80.9271 400.94 81.0094 400.981 81.0916C404.405 81.7496 407.849 82.3869 411.273 83.0449C411.252 83.2916 411.232 83.5383 411.211 83.8056C409.664 83.8056 408.117 83.929 406.591 83.7851C400.053 83.1066 393.577 83.8468 387.122 84.5458C384.688 84.8131 383.327 83.5178 381.821 82.2019C381.821 81.9963 381.842 81.7907 381.862 81.5645Z" fill="black"/>
<path d="M379.903 42.1907C381.285 37.4823 382.461 33.6991 383.492 29.8542C384.523 25.9888 385.389 22.1028 386.42 17.8467C396.361 20.2729 397.846 29.2374 401.084 37.4411C404.343 31.3346 407.231 25.5776 410.51 20.0673C411.603 18.2168 411.85 14.8654 415.336 15.4206C418.492 15.914 422.555 20.2935 422.781 23.4393C423.565 34.5421 424.184 45.6654 425.029 56.7888C425.318 60.6748 426.04 64.5402 426.576 68.5496C423.462 68.0355 419.812 67.2131 416.14 66.843C400.651 65.2804 385.307 65.4243 370.395 70.7496C367.755 71.6953 363.899 69.1458 363.321 65.8355C362.372 60.243 361.795 54.5682 360.97 48.9346C359.877 41.4094 358.701 33.9047 357.567 26.3795C357.484 25.8038 357.34 25.2281 357.113 24.0767C362.455 25.2692 367.384 25.1664 370.292 31.0262C372.251 35.0561 376.232 38.0785 379.903 42.1907ZM413.604 39.0038C411.459 42.8692 409.932 45.9944 408.035 48.8935C406.839 50.7234 404.364 53.8281 403.786 53.5608C400.981 52.2654 398.362 50.2299 396.196 47.9888C395.062 46.8168 394.938 44.658 394.464 42.9103C393.763 40.3813 393.165 37.8112 392.34 34.5626C389.493 42.0673 386.977 48.729 384.111 56.3159C379.161 52.1215 374.891 48.4823 370.54 44.7813C370.87 50.9496 371.179 56.9122 371.509 62.8953C386.235 60.1608 400.651 57.529 415.625 60.6542C414.944 53.5402 414.305 46.7757 413.604 39.0038Z" fill="black"/>
</g>
<defs>
<clipPath id="clip0">
<rect width="430" height="176" fill="white"/>
</clipPath>
</defs>
</svg>
